arm26_elbow_motion
version=1
nRows=599
nColumns=2
inDegrees=no
endheader
time	r_elbow_flex
0.111053	0.41273898
0.125137	0.40603102
0.141210	0.39864963
0.156363	0.39105270
0.169195	0.38380951
0.212080	0.37745162
0.237946	0.37140066
0.252772	0.36610276
0.262180	0.36692275
0.296938	0.36868954
0.320082	0.37101148
0.341514	0.37348915
0.355642	0.37568682
0.361032	0.37751372
0.374704	0.37927076
0.385864	0.38082964
0.395447	0.38216285
0.411034	0.38317156
0.442734	0.38364377
0.458678	0.38394309
0.471173	0.38416613
0.483644	0.38428652
0.504103	0.38435429
0.524119	0.38432928
0.533996	0.38426791
0.550579	0.38423331
0.567653	0.38416321
0.584080	0.38410326
0.592766	0.38404278
0.616620	0.38394778
0.632852	0.38387672
0.647816	0.38380809
0.659268	0.38369936
0.675912	0.38354341
0.692438	0.38330524
0.701216	0.38301289
0.716043	0.38271180
0.725477	0.38239112
0.749086	0.38208534
0.768220	0.38178852
0.778677	0.38154349
0.792014	0.38133460
0.809081	0.38119047
0.937666	0.38105132
0.946705	0.38066815
0.954789	0.38042648
0.974088	0.38017019
0.983301	0.37996120
0.999282	0.37977724
1.012470	0.37961375
1.027730	0.37950162
1.043734	0.37973533
1.064600	0.37982036
1.081226	0.37991949
1.098118	0.37998032
1.117424	0.38001186
1.124389	0.38000959
1.135835	0.38000427
1.147829	0.37993106
1.161705	0.37991452
1.168164	0.37993861
1.181033	0.37994464
1.189191	0.38005895
1.200975	0.38019703
1.243709	0.38034162
1.251740	0.38053626
1.264702	0.38074473
1.284263	0.38101130
1.292561	0.38133044
1.301880	0.38155455
1.309016	0.38172815
1.331072	0.38187908
1.350429	0.38196225
1.367020	0.38199700
1.392543	0.38196064
1.403049	0.38190021
1.433988	0.38187493
1.450397	0.38187646
1.458840	0.38187992
1.479638	0.38192082
1.487987	0.38194157
1.514267	0.38195046
1.529048	0.38197243
1.545581	0.38200136
1.562105	0.38204759
1.632883	0.38206327
1.647934	0.38205038
1.657820	0.38204003
1.675361	0.38203223
1.686284	0.38201940
1.699398	0.38201214
1.717437	0.38202701
1.733303	0.38210251
1.749036	0.38221925
1.770020	0.38235924
1.797616	0.38253281
1.814356	0.38265847
1.822789	0.38275723
1.849283	0.38278509
1.855002	0.38273677
1.863754	0.38263108
1.880937	0.38244305
1.895803	0.38219382
1.904428	0.38195699
1.914188	0.38171160
1.931608	0.38150922
1.984914	0.38133417
1.998822	0.38115936
2.009544	0.38095509
2.019120	0.38074827
2.034183	0.38054325
2.043785	0.38038151
2.051817	0.38025719
2.061879	0.38017962
2.069982	0.38014974
2.083422	0.38025139
2.101519	0.38040890
2.118157	0.38060604
2.134620	0.38081373
2.166246	0.38099205
2.198151	0.38114570
2.205278	0.38130217
2.215387	0.38143660
2.228026	0.38153004
2.238037	0.38158507
2.278727	0.38155963
2.293661	0.38151442
2.309473	0.38143541
2.350847	0.38128644
2.367960	0.38108061
2.400008	0.38089204
2.409939	0.38069521
2.430657	0.38053243
2.448153	0.38034397
2.466636	0.38019491
2.474346	0.38008914
2.485431	0.38003175
2.498750	0.37997224
2.508250	0.37993582
2.557588	0.37992436
2.621403	0.37993030
2.623892	0.37986136
2.639611	0.37981272
2.648426	0.37980898
2.665083	0.37982566
2.673851	0.37981277
2.683389	0.37975722
2.713917	0.37976027
2.731279	0.37984961
2.747117	0.37995895
2.764474	0.37999791
2.783064	0.37998853
2.795237	0.38001342
2.814067	0.38004005
2.821520	0.38001346
2.837973	0.37996013
2.847142	0.37985703
2.859870	0.37979102
2.865066	0.37978950
2.878947	0.37977809
2.894604	0.37981930
2.955266	0.37993204
2.986724	0.38004982
2.999462	0.38018213
3.009906	0.38031697
3.022164	0.38043166
3.048719	0.38053865
3.057955	0.38062944
3.096286	0.38068016
3.104811	0.38074188
3.129382	0.38080503
3.147344	0.38089872
3.155161	0.38098416
3.179471	0.38108174
3.195512	0.38116629
3.204090	0.38121644
3.212740	0.38127188
3.232285	0.38138092
3.236015	0.38146477
3.244648	0.38156422
3.265661	0.38165385
3.284959	0.38174066
3.309331	0.38186706
3.325192	0.38199613
3.341268	0.38210851
3.357181	0.38221984
3.373264	0.38229166
3.382610	0.38236945
3.399556	0.38244538
3.431622	0.38253386
3.438703	0.38263854
3.449117	0.38271712
3.465565	0.38278237
3.481540	0.38287585
3.515445	0.38301023
3.533270	0.38320028
3.549329	0.38342287
3.556103	0.38362627
3.565476	0.38385906
3.582258	0.38410354
3.589632	0.38434967
3.599085	0.38455350
3.616140	0.38466217
3.633029	0.38470841
3.639762	0.38472728
3.666197	0.38466956
3.682779	0.38452307
3.731893	0.38435059
3.747956	0.38414068
3.765493	0.38392766
3.785348	0.38367787
3.798208	0.38340562
3.830901	0.38316058
3.841513	0.38297386
3.857702	0.38279539
3.873668	0.38266464
3.881934	0.38256641
3.898025	0.38248634
3.914393	0.38243881
3.931778	0.38241053
3.949613	0.38239629
3.966036	0.38244981
3.990389	0.38251004
4.006410	0.38263158
4.015044	0.38274965
4.031872	0.38286125
4.049408	0.38299330
4.064624	0.38316838
4.067917	0.38337603
4.083260	0.38364879
4.093094	0.38396290
4.101614	0.38437196
4.110259	0.38483985
4.130871	0.38526297
4.139303	0.38548372
4.181584	0.38563928
4.189114	0.38586877
4.197837	0.38619141
4.239561	0.38674056
4.248316	0.38779391
4.265471	0.38964165
4.272385	0.39267459
4.298462	0.39705466
4.305313	0.40285216
4.315155	0.41022644
4.330269	0.41911080
4.352392	0.42924297
4.364687	0.43995894
4.384893	0.45077261
4.402015	0.46084151
4.408930	0.46987429
4.425975	0.47770578
4.442454	0.48412598
4.451511	0.48912118
4.477716	0.49278636
4.502863	0.49510332
4.519253	0.49637437
4.540576	0.49669160
4.552103	0.49602668
4.559279	0.49449752
4.570684	0.49238600
4.591488	0.49016529
4.616458	0.48819625
4.630130	0.48673991
4.654149	0.48556745
4.681299	0.48486373
4.700945	0.48497388
4.721460	0.48595321
4.732653	0.48797929
4.741163	0.49083482
4.753199	0.49443379
4.767867	0.49893373
4.781911	0.50420209
4.806580	0.51023717
4.820226	0.51698328
4.833525	0.53065129
4.853206	0.54510673
4.892835	0.56046679
4.919783	0.57691256
4.924711	0.59487346
4.948666	0.61423740
4.961053	0.63437872
4.977492	0.64775138
4.981673	0.65995250
5.035531	0.67052531
5.040551	0.67980453
5.048844	0.68825677
5.062164	0.69644975
5.077937	0.70489229
5.103095	0.71511730
5.118311	0.72882130
5.136618	0.74774783
5.151774	0.77258995
5.171150	0.80307677
5.176786	0.83865981
5.200434	0.87949492
5.215982	0.92515141
5.221021	0.97466308
5.254303	1.02681020
5.265991	1.07998171
5.295863	1.13250616
5.317211	1.18387436
5.334738	1.23322170
5.348729	1.28001076
5.378294	1.32404025
5.385561	1.36573262
5.400401	1.40457330
5.410218	1.44199058
5.426179	1.47810640
5.441986	1.51368927
5.457925	1.54859034
5.467601	1.58223843
5.477125	1.61392856
5.509011	1.64499398
5.519630	1.67523469
5.528887	1.70378914
5.552485	1.72937837
5.557968	1.75280473
5.609171	1.77508030
5.625301	1.79618662
5.642701	1.81532159
5.659203	1.83253997
5.668857	1.84920666
5.683345	1.86613320
5.699339	1.88329029
5.708453	1.90074338
5.733068	1.91783309
5.741430	1.93519493
5.751256	1.95298765
5.777439	1.97153698
5.785911	1.99081716
5.803797	2.00980961
5.828178	2.02687861
5.843528	2.04254299
5.859741	2.05629469
5.868232	2.06795038
5.875689	2.07690793
5.891371	2.08353709
5.907318	2.08893769
5.919871	2.09421589
5.943538	2.09922608
5.959406	2.10371960
5.978053	2.10715989
6.016869	2.10933538
6.031984	2.11012548
6.049258	2.10936454
6.059339	2.10698381
6.071024	2.10297965
6.110691	2.09722071
6.121501	2.08937633
6.143142	2.07900045
6.158831	2.06602863
6.167287	2.04961997
6.175701	2.02850520
6.192698	2.00355637
6.207666	1.97580216
6.223468	1.94488454
6.232835	1.91187734
6.241662	1.87930450
6.252582	1.84717655
6.268122	1.81517022
6.308201	1.78118114
6.318492	1.74730074
6.357344	1.71646814
6.373147	1.68627961
6.382994	1.65377540
6.392981	1.61880571
6.401559	1.58241183
6.428000	1.55237715
6.435489	1.52444887
6.450955	1.49336471
6.458737	1.46197574
6.483078	1.43403116
6.500200	1.41118927
6.524740	1.39200650
6.533502	1.36728600
6.541696	1.33905646
6.550776	1.31272283
6.582149	1.28784954
6.617118	1.26076347
6.633224	1.23073182
6.642834	1.19969621
6.657702	1.17037721
6.673594	1.14305734
6.686461	1.11657832
6.694163	1.08979106
6.728057	1.06259528
6.766122	1.03450129
6.770476	1.00514604
6.784503	0.97484677
6.791783	0.94371630
6.807508	0.91121190
6.825288	0.87883439
6.859407	0.84844185
6.882397	0.82029877
6.892268	0.79369738
6.910994	0.76650027
6.916612	0.73774261
6.932859	0.70862305
6.950583	0.67964670
6.954180	0.64933212
6.981699	0.61685387
6.990442	0.58413032
7.001508	0.55501758
7.016968	0.53188417
7.030821	0.51393551
7.063629	0.49879263
7.070574	0.48671941
7.080448	0.47917218
7.096322	0.47560520
7.132921	0.47442805
7.148963	0.47417805
7.156746	0.47417837
7.181115	0.47562206
7.191320	0.47928006
7.216051	0.48647561
7.220580	0.49919105
7.247877	0.51730468
7.254302	0.53848442
7.263689	0.56163697
7.279925	0.58732830
7.293923	0.61628184
7.315325	0.64740837
7.323904	0.67901209
7.354134	0.71164863
7.358941	0.74747848
7.380847	0.78736702
7.398692	0.83002713
7.417118	0.87364097
7.424296	0.91771694
7.450557	0.96240414
7.465733	1.00759560
7.516851	1.05335889
7.522137	1.09953617
7.532660	1.14592143
7.547118	1.19239479
7.564690	1.23853205
7.571017	1.28398959
7.580253	1.32875270
7.601196	1.37197065
7.608029	1.41329964
7.622111	1.45302189
7.656522	1.49149570
7.665899	1.52869822
7.681705	1.56405639
7.691528	1.59776556
7.714969	1.63102030
7.722645	1.66382102
7.770911	1.69535400
7.786791	1.72536463
7.799154	1.75446237
7.833592	1.78261097
7.845768	1.80854224
7.858218	1.83082492
7.868329	1.85091307
7.876276	1.87061096
7.886198	1.88964959
7.914727	1.90774680
7.920650	1.92546905
7.935171	1.94344802
7.952830	1.96339882
7.959896	1.98508842
7.991500	2.00746588
8.000214	2.03028123
8.007894	2.05293424
8.023855	2.07466573
8.039966	2.09508703
8.050984	2.11288094
8.075963	2.12733304
8.114890	2.13818714
8.123343	2.14514133
8.133550	2.14764122
8.147995	2.14572480
8.165836	2.13977951
8.174213	2.13024468
8.232937	2.11697380
8.254139	2.10033346
8.263623	2.08112757
8.281854	2.05995145
8.291108	2.03771774
8.298863	2.01358459
8.314987	1.98620522
8.324123	1.95613455
8.332087	1.92494035
8.348955	1.89393220
8.367620	1.86393133
8.385610	1.83341788
8.413419	1.80282364
8.423184	1.77401456
8.432252	1.74745019
8.448299	1.72233470
8.468119	1.69645786
8.482558	1.66889927
8.501123	1.64244587
8.507310	1.61704351
8.518135	1.59191577
8.547672	1.56535591
8.588829	1.53624164
8.604982	1.50644283
8.621316	1.47731848
8.633074	1.44751604
8.645521	1.41702066
8.664059	1.38492661
8.678377	1.35257120
8.686139	1.32149143
8.716779	1.28998692
8.720772	1.25616071
8.765358	1.21972762
8.779129	1.18218586
8.786969	1.14546655
8.796223	1.10899269
8.812034	1.07163354
8.828586	1.03471040
8.835685	0.99887906
8.862475	0.96387831
8.870305	0.92923020
8.881515	0.89399808
8.915349	0.85698577
8.930689	0.81905894
8.951099	0.78070409
8.957822	0.74380792
8.974566	0.70986172
8.990168	0.67786674
9.030362	0.64733473
9.037423	0.62012151
9.046701	0.59674142
9.060757	0.57701242
9.071059	0.55981441
9.082621	0.54412995
9.128447	0.53066754
9.135893	0.52043477
9.146435	0.51354911
9.161692	0.50928351
9.171542	0.50734571
9.182063	0.50798240
9.195628	0.51172157
9.229837	0.51932699
9.246797	0.53140892
9.263422	0.54755313
9.270864	0.56719704
9.312390	0.58976811
9.328798	0.61502602
9.345482	0.64267478
9.362798	0.67173368
9.373245	0.70105506
9.381629	0.73059534
9.390055	0.76069707
9.398632	0.79229776
9.412824	0.82578331
9.419759	0.86082763
9.453642	0.89697638
9.466176	0.93413933
9.482204	0.97212784
9.492386	1.01110399
9.512993	1.05115732
9.529758	1.09194353
9.537301	1.13344618
9.561884	1.17568465
9.574415	1.21843453
9.609681	1.26159984
9.626830	1.30525020
9.634271	1.34847943
9.658744	1.39048777
9.713820	1.43063922
9.719315	1.46936118
9.736621	1.50699729
9.751104	1.54377895
9.767250	1.57912456
9.775911	1.61262743
9.783639	1.64449340
9.790102	1.67636972
9.837387	1.70867651
9.848083	1.74040865
9.855063	1.77057784
9.867392	1.79957015
9.881548	1.82816743
9.890792	1.85579490
9.900789	1.88057796
9.913465	1.90166533
9.944781	1.92052312
9.961993	1.93864729
9.973789	1.95557298
9.983931	1.97159240
9.990224	1.98764478
10.005615	2.00368458
10.049533	2.01953812
10.059508	2.03504357
10.066641	2.05061454
10.083260	2.06605687
10.099098	2.08031625
10.153847	2.09319467
10.163719	2.10559486
10.181081	2.11860434
10.198974	2.13166843
10.212778	2.14352251
10.229429	2.15469085
10.240701	2.16575127
10.258035	2.17701597
10.272389	2.18840561
